<?xml version="1.0" encoding="UTF-8"?>
<svg xmlns="http://www.w3.org/2000/svg" version="1.1" width="90" height="90" viewBox="0 0 90 90"><rect x="0" y="0" width="90" height="90" fill="#ffffff"/><g transform="scale(4.286)"><g transform="translate(0,0)"><path fill-rule="evenodd" d="M8 0L8 2L9 2L9 4L8 4L8 9L7 9L7 8L5 8L5 9L3 9L3 8L0 8L0 10L2 10L2 9L3 9L3 10L5 10L5 11L4 11L4 12L3 12L3 11L0 11L0 12L1 12L1 13L2 13L2 12L3 12L3 13L4 13L4 12L6 12L6 13L7 13L7 12L6 12L6 11L8 11L8 14L9 14L9 15L8 15L8 16L9 16L9 17L10 17L10 18L8 18L8 21L9 21L9 19L11 19L11 17L13 17L13 16L14 16L14 15L15 15L15 17L14 17L14 18L13 18L13 19L12 19L12 20L13 20L13 21L15 21L15 20L16 20L16 21L17 21L17 20L18 20L18 19L21 19L21 18L18 18L18 17L16 17L16 15L17 15L17 16L18 16L18 15L19 15L19 14L20 14L20 16L19 16L19 17L20 17L20 16L21 16L21 14L20 14L20 13L21 13L21 8L19 8L19 9L20 9L20 11L19 11L19 10L18 10L18 11L17 11L17 8L12 8L12 7L13 7L13 6L12 6L12 7L11 7L11 5L10 5L10 7L9 7L9 4L10 4L10 3L11 3L11 4L12 4L12 5L13 5L13 3L12 3L12 2L13 2L13 0ZM10 1L10 2L11 2L11 1ZM6 9L6 10L7 10L7 9ZM8 9L8 10L9 10L9 9ZM11 9L11 10L10 10L10 11L9 11L9 14L10 14L10 15L9 15L9 16L11 16L11 14L10 14L10 13L12 13L12 14L13 14L13 15L12 15L12 16L13 16L13 15L14 15L14 14L15 14L15 15L16 15L16 14L15 14L15 13L16 13L16 12L17 12L17 11L15 11L15 10L16 10L16 9L15 9L15 10L14 10L14 12L12 12L12 11L13 11L13 9ZM10 11L10 12L11 12L11 11ZM18 11L18 13L19 13L19 11ZM13 13L13 14L14 14L14 13ZM17 14L17 15L18 15L18 14ZM15 17L15 18L14 18L14 19L13 19L13 20L15 20L15 19L16 19L16 20L17 20L17 19L16 19L16 17ZM10 20L10 21L11 21L11 20ZM20 20L20 21L21 21L21 20ZM0 0L0 7L7 7L7 0ZM1 1L1 6L6 6L6 1ZM2 2L2 5L5 5L5 2ZM14 0L14 7L21 7L21 0ZM15 1L15 6L20 6L20 1ZM16 2L16 5L19 5L19 2ZM0 14L0 21L7 21L7 14ZM1 15L1 20L6 20L6 15ZM2 16L2 19L5 19L5 16Z" fill="#000000"/></g></g></svg>
